<?xml version="1.0" standalone="no"?><svg xmlns="http://www.w3.org/2000/svg" viewBox="0 0 1440 320"><path fill="#1560BD" fill-opacity="1" d="M0,64L24,80C48,96,96,128,144,144C192,160,240,160,288,149.3C336,139,384,117,432,122.7C480,128,528,160,576,181.3C624,203,672,213,720,229.3C768,245,816,267,864,277.3C912,288,960,288,1008,277.3C1056,267,1104,245,1152,213.3C1200,181,1248,139,1296,128C1344,117,1392,139,1416,149.3L1440,160L1440,0L1416,0C1392,0,1344,0,1296,0C1248,0,1200,0,1152,0C1104,0,1056,0,1008,0C960,0,912,0,864,0C816,0,768,0,720,0C672,0,624,0,576,0C528,0,480,0,432,0C384,0,336,0,288,0C240,0,192,0,144,0C96,0,48,0,24,0L0,0Z"></path></svg>