
        <svg xmlns="http://www.w3.org/2000/svg" xmlns:xlink="http://www.w3.org/1999/xlink" version="1.1" width="3352.9411764705883" 
        height="1293.5618852913817" viewBox="0 0 3352.9411764705883 1293.5618852913817">
			
			<g transform="scale(17.647058823529413) translate(10, 10)">
				<defs id="SvgjsDefs2722"><linearGradient id="SvgjsLinearGradient2727"><stop id="SvgjsStop2728" stop-color="#2d388a" offset="0"></stop><stop id="SvgjsStop2729" stop-color="#00aeef" offset="1"></stop></linearGradient></defs><g id="SvgjsG2723" featureKey="symbolFeature-0" transform="matrix(0.5926486464196465,0,0,0.5926486464196465,-126.71598713492324,-124.89576885979342)" fill="#137dc5"><g xmlns="http://www.w3.org/2000/svg"><path fill="#137DC5" d="M232.774,255.516c-0.24-0.444-0.794-0.61-1.238-0.37c-0.444,0.24-0.609,0.794-0.37,1.238   c0.771,1.427,1.652,2.81,2.619,4.115c0.179,0.242,0.455,0.369,0.734,0.369c0.189,0,0.38-0.059,0.544-0.18   c0.405-0.301,0.49-0.873,0.189-1.277C234.338,258.177,233.504,256.867,232.774,255.516z"></path><path fill="#137DC5" d="M235.143,219.311c-0.404-0.302-0.977-0.219-1.279,0.186c-0.971,1.301-1.857,2.682-2.633,4.105   c-0.242,0.443-0.079,0.998,0.364,1.24c0.139,0.076,0.289,0.112,0.437,0.112c0.324,0,0.637-0.172,0.803-0.477   c0.734-1.347,1.573-2.655,2.493-3.887C235.631,220.186,235.548,219.613,235.143,219.311z"></path><path fill="#137DC5" d="M247.485,260.689c0.164,0.121,0.354,0.18,0.543,0.18c0.28,0,0.556-0.127,0.735-0.369   c0.967-1.305,1.849-2.689,2.619-4.115c0.24-0.444,0.074-0.998-0.37-1.238c-0.444-0.239-0.999-0.074-1.238,0.37   c-0.729,1.35-1.563,2.661-2.479,3.895C246.995,259.816,247.08,260.388,247.485,260.689z"></path><path fill="#137DC5" d="M249.714,224.477c0.166,0.304,0.479,0.476,0.803,0.476c0.148,0,0.298-0.036,0.437-0.111   c0.443-0.242,0.606-0.797,0.364-1.24c-0.776-1.423-1.662-2.804-2.633-4.105c-0.302-0.405-0.875-0.488-1.279-0.186   c-0.405,0.302-0.488,0.875-0.186,1.279C248.14,221.823,248.979,223.13,249.714,224.477z"></path><path fill="#137DC5" d="M291.788,271.248h-2.997c-0.4-6.291-5.644-11.287-12.034-11.287c-6.65,0-12.061,5.41-12.061,12.061v4.525   c0,6.205-5.048,11.252-11.252,11.252s-11.251-5.047-11.252-11.25v-0.002v-9.203c7.137-0.242,13.972-3.293,18.906-8.457   c0.068-0.043,0.133-0.094,0.189-0.158c0.045-0.051,0.082-0.105,0.113-0.162c4.699-5.048,7.305-11.611,7.34-18.514v-0.145   c0-7.035-2.654-13.713-7.471-18.801c-5.136-5.483-12.378-8.639-19.887-8.67c-0.001,0-0.002,0-0.004,0   c-0.032-0.003-0.064-0.008-0.096-0.008c-0.003,0-0.006,0.001-0.01,0.001s-0.006-0.001-0.01-0.001c-0.011,0-0.022,0.002-0.033,0.003   c-0.028,0.001-0.056,0.002-0.084,0.006c-7.609,0.028-14.665,3.104-19.877,8.668c-4.807,5.098-7.455,11.776-7.455,18.803v0.15   c0.036,6.892,2.635,13.454,7.321,18.507c0.032,0.059,0.069,0.113,0.115,0.166c0.056,0.063,0.122,0.113,0.189,0.158   c5.009,5.23,11.704,8.215,18.923,8.441v9.215c0,0.002,0,0.002,0,0.002c0,7.213,5.868,13.08,13.08,13.08s13.079-5.867,13.079-13.08   v-4.525c0-5.643,4.591-10.234,10.233-10.234c5.383,0,9.805,4.178,10.202,9.461h-2.938c-3.526,0-6.396,2.869-6.396,6.396v15.533   c0,3.525,2.87,6.395,6.396,6.395h7.767c3.526,0,6.396-2.869,6.396-6.395v-15.533C298.185,274.117,295.315,271.248,291.788,271.248z    M215.666,240.966h11.4c0.013,0.487,0.032,0.975,0.065,1.458c0.033,0.482,0.435,0.852,0.911,0.852c0.021,0,0.042-0.001,0.063-0.002   c0.503-0.034,0.884-0.47,0.85-0.974c-0.03-0.441-0.048-0.888-0.061-1.333h11.462v8.945c-3.25,0.098-6.431,0.715-9.432,1.81   c0.015-0.136,0.003-0.276-0.047-0.413c-0.531-1.444-0.962-2.937-1.282-4.436c-0.105-0.494-0.591-0.808-1.084-0.703   c-0.494,0.105-0.809,0.591-0.703,1.084c0.338,1.583,0.793,3.16,1.354,4.685c0.055,0.151,0.148,0.277,0.262,0.375   c-2.654,1.133-5.144,2.651-7.388,4.521C218.142,252.415,215.905,246.84,215.666,240.966z M222.016,223.001   c2.293,1.909,4.839,3.451,7.552,4.594c-0.159,0.103-0.29,0.254-0.361,0.445c-0.565,1.522-1.027,3.097-1.371,4.681   c-0.107,0.493,0.206,0.979,0.699,1.087c0.065,0.014,0.13,0.021,0.195,0.021c0.42,0,0.799-0.292,0.892-0.72   c0.326-1.5,0.763-2.991,1.298-4.432c0.067-0.18,0.073-0.367,0.029-0.54c2.997,1.092,6.169,1.708,9.406,1.806v9.195h-11.464   c0.014-0.488,0.037-0.976,0.072-1.458c0.036-0.503-0.342-0.941-0.846-0.977c-0.503-0.037-0.941,0.342-0.977,0.845   c-0.038,0.526-0.063,1.058-0.077,1.59h-11.408C215.833,233.153,218.069,227.481,222.016,223.001z M266.902,239.138h-11.417   c-0.014-0.532-0.039-1.064-0.077-1.59c-0.037-0.503-0.474-0.883-0.977-0.846c-0.503,0.037-0.882,0.474-0.846,0.978   c0.035,0.482,0.058,0.97,0.072,1.458h-11.473v-9.195c3.244-0.098,6.419-0.713,9.415-1.804c-0.043,0.172-0.037,0.359,0.03,0.538   c0.536,1.441,0.973,2.933,1.299,4.432c0.093,0.428,0.471,0.72,0.892,0.72c0.064,0,0.13-0.007,0.195-0.021   c0.493-0.107,0.806-0.594,0.699-1.087c-0.344-1.583-0.806-3.158-1.371-4.68c-0.071-0.191-0.201-0.341-0.359-0.444   c2.712-1.143,5.256-2.686,7.543-4.595C264.483,227.473,266.725,233.146,266.902,239.138z M260.504,256.836   c-2.247-1.866-4.736-3.383-7.386-4.516c0.117-0.099,0.212-0.227,0.269-0.381c0.561-1.525,1.017-3.101,1.354-4.685   c0.105-0.494-0.209-0.979-0.703-1.084c-0.493-0.105-0.979,0.209-1.084,0.703c-0.32,1.5-0.751,2.992-1.282,4.436   c-0.052,0.14-0.063,0.283-0.046,0.422c-3.007-1.1-6.192-1.721-9.442-1.819v-8.945h11.472c-0.013,0.446-0.031,0.892-0.061,1.334   c-0.034,0.503,0.346,0.939,0.85,0.974c0.021,0.001,0.042,0.002,0.063,0.002c0.476,0,0.878-0.369,0.911-0.852   s0.052-0.97,0.065-1.458h11.41C266.653,246.847,264.409,252.422,260.504,256.836z M245.58,262.908   c-0.359-0.355-0.937-0.352-1.292,0.006c-0.667,0.674-1.369,1.32-2.095,1.936v-0.912c0-0.031-0.006-0.061-0.009-0.09V251.74   c6.252,0.201,12.244,2.458,17.061,6.426c-4.02,3.959-9.271,6.482-14.849,7.174c0.405-0.373,0.805-0.75,1.19-1.139   C245.941,263.842,245.939,263.263,245.58,262.908z M242.183,228.115v-12.879c0.698,0.592,1.375,1.211,2.02,1.859   c0.179,0.18,0.414,0.27,0.648,0.27c0.233,0,0.466-0.089,0.645-0.266c0.357-0.356,0.359-0.935,0.003-1.292   c-0.476-0.478-0.97-0.94-1.475-1.39c5.724,0.625,11.128,3.185,15.244,7.256C254.462,225.65,248.461,227.914,242.183,228.115z    M237.054,217.097c0.178,0.178,0.411,0.266,0.645,0.266c0.234,0,0.469-0.09,0.647-0.269c0.641-0.645,1.315-1.261,2.01-1.851v12.872   c-6.261-0.201-12.262-2.466-17.084-6.446c4.169-4.141,9.487-6.663,15.264-7.265c-0.508,0.454-1.007,0.919-1.486,1.401   C236.695,216.162,236.696,216.741,237.054,217.097z M240.356,251.74v13.11c-0.727-0.615-1.428-1.262-2.095-1.936   c-0.355-0.359-0.934-0.361-1.292-0.006s-0.361,0.934-0.006,1.291c0.383,0.389,0.78,0.764,1.184,1.133   c-5.613-0.67-10.784-3.158-14.852-7.168C228.097,254.197,234.089,251.94,240.356,251.74z M296.357,293.177   c0,2.518-2.049,4.568-4.568,4.568h-7.767c-2.52,0-4.568-2.051-4.568-4.568v-15.533c0-2.52,2.049-4.57,4.568-4.57h2.97v7.688   c0,0.506,0.409,0.914,0.913,0.914c0.505,0,0.914-0.408,0.914-0.914v-7.688h2.97c2.52,0,4.568,2.051,4.568,4.57V293.177z"></path></g></g><g id="SvgjsG2724" featureKey="nameFeature-0" transform="matrix(1.8377409044990807,0,0,1.8377409044990807,66.84276036894465,-20.92567231730306)" fill="url(#SvgjsLinearGradient2727)"><path d="M16.152 40.39063 c-8.3008 0 -14.434 -5.6445 -14.434 -14.512 s6.1328 -14.492 14.434 -14.492 c6.2891 0 11.328 3.2227 13.34 8.5742 l-5.4688 1.9922 c-1.25 -3.2813 -4.2383 -5.1758 -7.8711 -5.1758 c-4.8633 0 -8.5938 3.3984 -8.5938 9.1016 s3.7305 9.1211 8.5938 9.1211 c3.6328 0 6.6211 -1.9141 7.8711 -5.1953 l5.4688 1.9922 c-2.0117 5.3516 -7.0508 8.5938 -13.34 8.5938 z M49.19953125 40 l-7.3438 -12.422 l-1.6992 0 l0 12.422 l-5.8594 0 l0 -28.223 l10.234 0 c6.3867 0 9.082 3.7695 9.082 8.4375 c0 3.7891 -2.1484 6.25 -5.9766 7.0703 l8.4961 12.715 l-6.9336 0 z M40.15623125 16.641 l0 6.7383 l3.457 0 c3.125 0 4.3945 -1.3281 4.3945 -3.3594 c0 -2.0117 -1.2695 -3.3789 -4.3945 -3.3789 l-3.457 0 z"></path></g>
			</g>
		</svg>
	